<?xml version="1.0" standalone="no"?>
<!DOCTYPE svg PUBLIC "-//W3C//DTD SVG 20010904//EN"
 "http://www.w3.org/TR/2001/REC-SVG-20010904/DTD/svg10.dtd">
<svg version="1.0" xmlns="http://www.w3.org/2000/svg"
 width="180.000000pt" height="180.000000pt" viewBox="0 0 180.000000 180.000000"
 preserveAspectRatio="xMidYMid meet">
<metadata>
Created by potrace 1.11, written by Peter Selinger 2001-2013
</metadata>
<g transform="translate(0.000000,180.000000) scale(0.100000,-0.100000)"
fill="#000000" stroke="none">
<path d="M528 1605 c-208 -104 -378 -192 -378 -195 0 -3 169 -90 377 -193
l376 -189 121 60 c67 33 239 119 384 191 l263 130 -88 45 c-48 24 -221 111
-383 192 l-295 149 -377 -190z"/>
<path d="M93 858 l2 -473 375 -187 c206 -103 378 -187 381 -188 4 0 6 212 5
472 l-1 472 -375 188 c-206 102 -378 187 -382 187 -4 1 -6 -212 -5 -471z"/>
<path d="M1336 1144 c-203 -101 -372 -187 -375 -190 -8 -7 -9 -944 -2 -944 3
0 175 85 381 188 l375 187 3 473 c1 259 -1 472 -5 471 -5 0 -174 -83 -377
-185z"/>
</g>
</svg>
